<?xml version="1.0" encoding="UTF-8"?>
<!DOCTYPE svg PUBLIC "-//W3C//DTD SVG 1.1//EN" "http://www.w3.org/Graphics/SVG/1.1/DTD/svg11.dtd">
<!-- Creator: CorelDRAW -->
<svg xmlns="http://www.w3.org/2000/svg" xml:space="preserve" width="337.296mm" height="337.296mm" version="1.1" style="shape-rendering:geometricPrecision; text-rendering:geometricPrecision; image-rendering:optimizeQuality; fill-rule:evenodd; clip-rule:evenodd"
viewBox="0 0 6246.18 6246.18"
 xmlns:xlink="http://www.w3.org/1999/xlink"
 xmlns:xodm="http://www.corel.com/coreldraw/odm/2003">
 <defs>
  <style type="text/css">
   <![CDATA[
    .fil4 {fill:#2CB660}
    .fil2 {fill:#8B2324}
    .fil1 {fill:#F03838}
    .fil3 {fill:#FDD909}
    .fil5 {fill:#FF9B19}
    .fil0 {fill:#FFB44F}
   ]]>
  </style>
 </defs>
 <g id="Layer_x0020_1">
  <metadata id="CorelCorpID_0Corel-Layer"/>
  <g id="_1988449263600">
   <circle class="fil0" cx="3123.09" cy="3123.09" r="3123.09"/>
   <path class="fil1" d="M6162.58 3843.02c-42.69,180.5 -101,355.22 -173.42,522.13l-5628.5 215.67c-119.55,-226.13 -212.21,-468.69 -273.59,-723.44 466.14,3.95 1451.18,2.94 2544.68,-0.19 -40.67,145.33 -44.04,251.77 86.11,308.72 177.51,77.67 387.21,-56.23 385.14,-310.16 1102.76,-3.57 2254.47,-8.82 3059.59,-12.72zm-3428.49 -325.01c-0.63,3.66 -1.54,7.32 -2.55,10.84 1.01,-3.57 1.88,-7.23 2.55,-10.84z"/>
   <path class="fil2" d="M6237.94 3349.7c-12.09,168.45 -37.54,333.29 -75.31,493.32 -805.12,3.9 -1956.88,9.15 -3059.63,12.72 -0.48,-52.38 -9.93,-109.86 -30.5,-171.63 -120.46,-361.39 40.18,-521.94 153.95,-441.66 113.76,80.28 -46.88,475.1 200.74,495.19 247.62,20.09 -40.14,-608.96 341.29,-548.73 255.43,40.33 1602.05,153.95 2464.12,224.64 1.97,-21.25 3.71,-42.55 5.25,-63.89l0.1 0.05zm-3606.19 507.48c-1093.5,3.13 -2078.54,4.14 -2544.68,0.19 -56.76,-235.53 -87.07,-481.37 -87.07,-734.29 0,-214.33 21.68,-423.59 62.78,-625.77l0.19 0c-17.01,83.6 -30.69,168.4 -40.86,254.27l2410.15 305.11c0,0 379.21,159.01 298.94,473.51 -31.46,123.3 -73.19,233.26 -99.45,326.98z"/>
   <path class="fil3" d="M6006.71 1921.7c154.29,369.82 239.48,775.63 239.48,1201.39 0,97.96 -4.77,194.81 -13.59,290.46 -862.07,-70.69 -2208.69,-184.31 -2464.12,-224.64 -381.43,-60.23 -93.67,568.82 -341.29,548.73 -247.62,-20.09 -86.97,-414.92 -200.74,-495.19 -113.76,-80.28 -274.41,80.28 -153.95,441.66 120.46,361.38 -140.51,575.52 -354.64,481.8 -214.13,-93.72 -66.93,-321.2 13.35,-635.7 80.28,-314.5 -298.94,-473.51 -298.94,-473.51l-2410.15 -305.11c20.72,-174.62 55.8,-344.86 104.13,-509.46l5880.46 -320.43z"/>
   <path class="fil4" d="M125.95 2242.18c-0.14,1.64 -33.44,412.46 393.91,552.68 428.22,140.51 548.63,-595.42 1030.38,-207.39 481.75,388.03 715.98,-481.75 1090.61,-207.44 374.64,274.32 582.07,-207.39 776.11,-40.14 194.04,167.25 575.08,609.63 967.5,278.75 392.42,-330.88 623.27,-430.92 900.28,-161.61 277.01,269.3 789.84,168.12 721.95,-535.33l-5880.75 320.48z"/>
   <path class="fil5" d="M1682.03 973.8c66.29,-21.84 137.75,14.22 159.56,80.51 21.84,66.29 29.37,256.04 -36.92,277.89 -66.29,21.84 -181.3,-132.54 -203.14,-198.83 -21.84,-66.29 14.22,-137.72 80.5,-159.56zm696.29 -518.06c-62.49,16.63 -99.66,80.78 -83.03,143.27 16.63,62.46 106.87,213.5 169.36,196.87 62.49,-16.63 73.54,-194.62 56.9,-257.11 -16.6,-62.46 -80.75,-99.66 -143.24,-83.03zm-1520.95 1017.8c69.81,-39.34 158.28,-14.63 197.66,55.21 39.34,69.81 90,281.89 20.22,321.23 -69.88,39.34 -233.72,-108.98 -273.09,-178.78 -39.34,-69.81 -14.6,-158.29 55.21,-197.66zm3301.8 -1044.78c-64.49,-4.73 -120.6,43.72 -125.33,108.22 -4.69,64.49 31.16,236.72 95.65,241.45 64.49,4.73 133.16,-159.87 137.86,-224.37 4.76,-64.43 -43.68,-120.6 -108.18,-125.3zm-1455.94 894.02c-59.66,-7.63 -114.18,34.58 -121.81,94.21 -7.63,59.66 17.08,221.47 76.75,229.09 59.63,7.59 131.68,-141.83 139.31,-201.49 7.63,-59.63 -34.58,-114.19 -94.24,-121.81zm1167.25 -9.21c62.49,16.63 99.66,80.78 83.03,143.27 -16.63,62.46 -106.87,213.5 -169.36,196.87 -62.49,-16.63 -73.54,-194.62 -56.9,-257.11 16.6,-62.46 80.75,-99.66 143.24,-83.03zm-613.92 -920.14c79.95,-5.11 148.93,55.56 154.08,135.58 5.11,79.95 -41.34,293 -121.29,298.11 -80.02,5.11 -163.22,-199.63 -168.36,-279.61 -5.11,-79.95 55.59,-148.93 135.58,-154.07zm1609.46 798.02c79.99,4.66 141.1,73.26 136.48,153.28 -4.66,79.99 -76.64,285.82 -156.63,281.17 -80.02,-4.62 -137.75,-217.95 -133.13,-297.97 4.66,-79.99 73.26,-141.1 153.28,-136.48z"/>
  </g>
 </g>
</svg>
